<svg xmlns="http://www.w3.org/2000/svg" width="22" height="24" fill="none"><path fill="#000" d="M9.417.108a10.656 10.656 0 0 0-5.42 2.522l3.432 3.628C8.662 4.58 9.35 2.452 9.417.108ZM11 10.03l7.004-7.401A10.63 10.63 0 0 0 11.55 0c-.053 2.995-.954 5.733-2.604 7.86L11 10.032ZM2.488 4.223C1.171 5.911.381 7.898.102 9.952c2.218-.07 4.236-.797 5.82-2.1L2.487 4.223Zm12.074 9.572c2.009-1.739 4.6-2.69 7.438-2.751-.115-2.433-.936-4.833-2.488-6.82l-7.004 7.401 2.054 2.17ZM11 13.22 3.996 20.62a10.658 10.658 0 0 0 6.454 2.63c.058-3 .958-5.738 2.604-7.86L11 13.218Zm8.512 5.808c1.317-1.688 2.107-3.675 2.386-5.729-2.222.075-4.236.802-5.82 2.1l3.434 3.629ZM7.438 9.455c-2.013 1.743-4.604 2.7-7.438 2.751.115 2.433.936 4.833 2.488 6.82l7.004-7.401-2.054-2.17Zm5.146 13.687a10.655 10.655 0 0 0 5.42-2.522l-3.433-3.628c-1.23 1.674-1.917 3.806-1.987 6.15Z"/></svg>