<svg xmlns="http://www.w3.org/2000/svg" width="21" height="22" fill="none"><path fill="#000" d="M19.386 12.634c1.23-3.315.617-7.257-1.844-9.946-3.277-3.584-8.594-3.584-11.871 0l-2.188 2.39 8.262 9.013c1.8-2.646 5.137-3.298 7.64-1.457Zm-8.512 3.396-8.61-9.388c-1.066 1.93-.847 4.475.676 6.141l1.348 1.474-4.023 3.81a.892.892 0 0 0-.04 1.227l2.087 2.28a.723.723 0 0 0 1.12-.042l3.489-4.402 1.394 1.52c.77.84 1.743 1.3 2.747 1.42a6.558 6.558 0 0 1-.43-2.348 6.369 6.369 0 0 1 .242-1.692Zm5.379-2.395c-2.07 0-3.75 1.833-3.75 4.091 0 2.259 1.68 4.091 3.75 4.091 2.07 0 3.75-1.832 3.75-4.09 0-2.26-1.68-4.092-3.75-4.092Z"/></svg>